# xmcd CD database file
# Copyright (C) 1997 Ti Kan
# 
# Track frame offsets:
#     150
#     16220
#     33187
#     51117
#     66565
#     84980
#     100540
#     117207
#     138135
#     153067
#     168865
#     186822
#     207945
#     240040
#     267330
# 
# Disc length: 4018 seconds
# 
# Revision: 2
# Processed by: cddbd v1.4b41PL1 Copyright (c) Steve Scherf et al.
# Submitted via: DiscPlay 4.0.3
# 
DISCID=af0fb00f
DTITLE=Gary Fjellgaard - Believe In Forever
DYEAR=1900
DGENRE=
TTITLE0=Train Of Dreams
TTITLE1=Islanders
TTITLE2=The Falcon And The Cowboy (Keepers Of The Earth)
TTITLE3=Hard Side Of Midnight
TTITLE4=Dancing Up A Storm
TTITLE5=Believe In Forever
TTITLE6=What About Love
TTITLE7=Wild Summer Rose
TTITLE8=Eye Of The Storm
TTITLE9=Trace Back With You (Duet With Anita Perras)
TTITLE10=The Old Green Wall
TTITLE11=Winds Of October
TTITLE12=Heart Of A Dream
TTITLE13=Time And Innocence
TTITLE14=No Time To Lose
EXTD=
EXTT0=
EXTT1=
EXTT2=
EXTT3=
EXTT4=
EXTT5=
EXTT6=
EXTT7=
EXTT8=
EXTT9=
EXTT10=
EXTT11=
EXTT12=
EXTT13=
EXTT14=
PLAYORDER=
